<svg xmlns="http://www.w3.org/2000/svg" viewBox="0 0 512 512">
  <rect width="512" height="512" rx="100" fill="#09090b"/>

  <path d="M140 100 L140 412 L200 412 L200 290 L310 412 L390 412 L260 260 L380 100 L300 100 L200 230 L200 100 Z" 
        fill="#d946ef" opacity="0.8" transform="translate(15, 0)"/>

  <path d="M140 100 L140 412 L200 412 L200 290 L310 412 L390 412 L260 260 L380 100 L300 100 L200 230 L200 100 Z" 
        fill="#22d3ee" opacity="0.8" transform="translate(-15, 0)"/>

  <g fill="#ffffff">
    <path d="M140 100 L140 250 L250 250 L380 100 L300 100 L200 230 L200 100 Z" />
    <path d="M140 260 L140 412 L200 412 L200 290 L310 412 L390 412 L260 260 L240 260 Z" transform="translate(10, 0)"/>
  </g>

  <rect y="150" width="512" height="10" fill="#000" opacity="0.5"/>
  <rect y="300" width="512" height="20" fill="#000" opacity="0.5"/>
</svg>